<?xml version="1.0" encoding="UTF-8" standalone="no"?>
<!DOCTYPE svg PUBLIC "-//W3C//DTD SVG 1.1//EN"
 "http://www.w3.org/Graphics/SVG/1.1/DTD/svg11.dtd">
<!-- Generated by graphviz version 14.1.4 (20260321.0153)
 -->
<!-- Title: app/include/core/AppConfig.h Pages: 1 -->
<svg width="194pt" height="89pt"
 viewBox="0.00 0.00 194.00 89.00" xmlns="http://www.w3.org/2000/svg" xmlns:xlink="http://www.w3.org/1999/xlink">
<g id="graph0" class="graph" transform="scale(1 1) rotate(0) translate(4 84.5)">
<title>app/include/core/AppConfig.h</title>
<!-- Node1 -->
<g id="Node000001" class="node">
<title>Node1</title>
<g id="a_Node000001"><a xlink:title="Application configuration and settings.">
<polygon fill="#999999" stroke="#666666" points="163.62,-80.5 8.12,-80.5 8.12,-58.25 163.62,-58.25 163.62,-80.5"/>
<text xml:space="preserve" text-anchor="middle" x="85.88" y="-67" font-family="Helvetica,sans-Serif" font-size="10.00">app/include/core/AppConfig.h</text>
</a>
</g>
</g>
<!-- Node2 -->
<g id="Node000002" class="node">
<title>Node2</title>
<g id="a_Node000002"><a xlink:title=" ">
<polygon fill="#e0e0e0" stroke="#999999" points="37.75,-22.25 0,-22.25 0,0 37.75,0 37.75,-22.25"/>
<text xml:space="preserve" text-anchor="middle" x="18.88" y="-8.75" font-family="Helvetica,sans-Serif" font-size="10.00">QDir</text>
</a>
</g>
</g>
<!-- Node1&#45;&gt;Node2 -->
<g id="edge1_Node000001_Node000002" class="edge">
<title>Node1&#45;&gt;Node2</title>
<g id="a_edge1_Node000001_Node000002"><a xlink:title=" ">
<path fill="none" stroke="#63b8ff" d="M73.27,-57.79C63.91,-49.94 50.93,-39.04 40,-29.86"/>
<polygon fill="#63b8ff" stroke="#63b8ff" points="42.49,-27.38 32.58,-23.63 37.99,-32.74 42.49,-27.38"/>
</a>
</g>
</g>
<!-- Node3 -->
<g id="Node000003" class="node">
<title>Node3</title>
<g id="a_Node000003"><a xlink:title=" ">
<polygon fill="#e0e0e0" stroke="#999999" points="116.38,-22.25 55.38,-22.25 55.38,0 116.38,0 116.38,-22.25"/>
<text xml:space="preserve" text-anchor="middle" x="85.88" y="-8.75" font-family="Helvetica,sans-Serif" font-size="10.00">QSettings</text>
</a>
</g>
</g>
<!-- Node1&#45;&gt;Node3 -->
<g id="edge2_Node000001_Node000003" class="edge">
<title>Node1&#45;&gt;Node3</title>
<g id="a_edge2_Node000001_Node000003"><a xlink:title=" ">
<path fill="none" stroke="#63b8ff" d="M85.88,-57.79C85.88,-51.12 85.88,-42.24 85.88,-34.09"/>
<polygon fill="#63b8ff" stroke="#63b8ff" points="89.38,-34.17 85.88,-24.17 82.38,-34.17 89.38,-34.17"/>
</a>
</g>
</g>
<!-- Node4 -->
<g id="Node000004" class="node">
<title>Node4</title>
<g id="a_Node000004"><a xlink:title=" ">
<polygon fill="#e0e0e0" stroke="#999999" points="185.5,-22.25 134.25,-22.25 134.25,0 185.5,0 185.5,-22.25"/>
<text xml:space="preserve" text-anchor="middle" x="159.88" y="-8.75" font-family="Helvetica,sans-Serif" font-size="10.00">QString</text>
</a>
</g>
</g>
<!-- Node1&#45;&gt;Node4 -->
<g id="edge3_Node000001_Node000004" class="edge">
<title>Node1&#45;&gt;Node4</title>
<g id="a_edge3_Node000001_Node000004"><a xlink:title=" ">
<path fill="none" stroke="#63b8ff" d="M99.79,-57.79C110.23,-49.86 124.75,-38.82 136.9,-29.59"/>
<polygon fill="#63b8ff" stroke="#63b8ff" points="138.97,-32.41 144.81,-23.57 134.73,-26.84 138.97,-32.41"/>
</a>
</g>
</g>
</g>
</svg>
