<?xml version="1.0" encoding="UTF-8" standalone="no"?>
<!DOCTYPE svg PUBLIC "-//W3C//DTD SVG 1.1//EN"
 "http://www.w3.org/Graphics/SVG/1.1/DTD/svg11.dtd">
<!-- Generated by graphviz version 14.1.4 (20260321.0153)
 -->
<!-- Title: acav::QueryDependenciesParallelRunner Pages: 1 -->
<svg width="179pt" height="161pt"
 viewBox="0.00 0.00 179.00 161.00" xmlns="http://www.w3.org/2000/svg" xmlns:xlink="http://www.w3.org/1999/xlink">
<g id="graph0" class="graph" transform="scale(1 1) rotate(0) translate(4 157)">
<title>acav::QueryDependenciesParallelRunner</title>
<!-- Node1 -->
<g id="Node000001" class="node">
<title>Node1</title>
<g id="a_Node000001"><a xlink:title="Parallel runner specifically for query&#45;dependencies tool.">
<polygon fill="#999999" stroke="#666666" points="171.25,-36.5 0,-36.5 0,0 171.25,0 171.25,-36.5"/>
<text xml:space="preserve" text-anchor="start" x="8" y="-23" font-family="Helvetica,sans-Serif" font-size="10.00">acav::QueryDependenciesParallel</text>
<text xml:space="preserve" text-anchor="middle" x="85.62" y="-8.75" font-family="Helvetica,sans-Serif" font-size="10.00">Runner</text>
</a>
</g>
</g>
<!-- Node2 -->
<g id="Node000002" class="node">
<title>Node2</title>
<g id="a_Node000002"><a xlink:href="classacav_1_1ParallelProcessRunner.html" target="_top" xlink:title="Generic parallel process runner for executing multiple instances of a program.">
<polygon fill="white" stroke="#666666" points="158.12,-94.75 13.12,-94.75 13.12,-72.5 158.12,-72.5 158.12,-94.75"/>
<text xml:space="preserve" text-anchor="middle" x="85.62" y="-81.25" font-family="Helvetica,sans-Serif" font-size="10.00">acav::ParallelProcessRunner</text>
</a>
</g>
</g>
<!-- Node2&#45;&gt;Node1 -->
<g id="edge1_Node000001_Node000002" class="edge">
<title>Node2&#45;&gt;Node1</title>
<g id="a_edge1_Node000001_Node000002"><a xlink:title=" ">
<path fill="none" stroke="#63b8ff" d="M85.62,-60.92C85.62,-53.1 85.62,-44.36 85.62,-36.92"/>
<polygon fill="#63b8ff" stroke="#63b8ff" points="82.13,-60.65 85.63,-70.65 89.13,-60.65 82.13,-60.65"/>
</a>
</g>
</g>
<!-- Node3 -->
<g id="Node000003" class="node">
<title>Node3</title>
<g id="a_Node000003"><a xlink:title=" ">
<polygon fill="white" stroke="#bfbfbf" points="112.38,-153 58.88,-153 58.88,-130.75 112.38,-130.75 112.38,-153"/>
<text xml:space="preserve" text-anchor="middle" x="85.62" y="-139.5" font-family="Helvetica,sans-Serif" font-size="10.00">QObject</text>
</a>
</g>
</g>
<!-- Node3&#45;&gt;Node2 -->
<g id="edge2_Node000002_Node000003" class="edge">
<title>Node3&#45;&gt;Node2</title>
<g id="a_edge2_Node000002_Node000003"><a xlink:title=" ">
<path fill="none" stroke="#63b8ff" d="M85.62,-118.85C85.62,-110.7 85.62,-101.83 85.62,-95.16"/>
<polygon fill="#63b8ff" stroke="#63b8ff" points="82.13,-118.78 85.63,-128.78 89.13,-118.78 82.13,-118.78"/>
</a>
</g>
</g>
</g>
</svg>
