<?xml version="1.0" encoding="UTF-8" standalone="no"?>
<!DOCTYPE svg PUBLIC "-//W3C//DTD SVG 1.1//EN"
 "http://www.w3.org/Graphics/SVG/1.1/DTD/svg11.dtd">
<!-- Generated by graphviz version 14.1.2 (20260124.0452)
 -->
<!-- Title: app/ui/LogDock.cpp Pages: 1 -->
<svg width="974pt" height="205pt"
 viewBox="0.00 0.00 974.00 205.00" xmlns="http://www.w3.org/2000/svg" xmlns:xlink="http://www.w3.org/1999/xlink">
<g id="graph0" class="graph" transform="scale(1 1) rotate(0) translate(4 201)">
<title>app/ui/LogDock.cpp</title>
<!-- Node1 -->
<g id="Node000001" class="node">
<title>Node1</title>
<g id="a_Node000001"><a xlink:title="Implementation of LogDock.">
<polygon fill="#999999" stroke="#666666" points="675.75,-197 566.75,-197 566.75,-174.75 675.75,-174.75 675.75,-197"/>
<text xml:space="preserve" text-anchor="middle" x="621.25" y="-183.5" font-family="Helvetica,sans-Serif" font-size="10.00">app/ui/LogDock.cpp</text>
</a>
</g>
</g>
<!-- Node2 -->
<g id="Node000002" class="node">
<title>Node2</title>
<g id="a_Node000002"><a xlink:href="LogDock_8h.html" target="_top" xlink:title="Dock widget for displaying logs and diagnostics.">
<polygon fill="white" stroke="#666666" points="347,-138.75 269.5,-138.75 269.5,-116.5 347,-116.5 347,-138.75"/>
<text xml:space="preserve" text-anchor="middle" x="308.25" y="-125.25" font-family="Helvetica,sans-Serif" font-size="10.00">ui/LogDock.h</text>
</a>
</g>
</g>
<!-- Node1&#45;&gt;Node2 -->
<g id="edge1_Node000001_Node000002" class="edge">
<title>Node1&#45;&gt;Node2</title>
<g id="a_edge1_Node000001_Node000002"><a xlink:title=" ">
<path fill="none" stroke="#63b8ff" d="M566.33,-175.9C515.08,-167.39 436.19,-153.97 358.25,-139.08"/>
<polygon fill="#63b8ff" stroke="#63b8ff" points="359.23,-135.71 348.75,-137.26 357.91,-142.58 359.23,-135.71"/>
</a>
</g>
</g>
<!-- Node11 -->
<g id="Node000011" class="node">
<title>Node11</title>
<g id="a_Node000011"><a xlink:title=" ">
<polygon fill="#e0e0e0" stroke="#999999" points="415.5,-138.75 365,-138.75 365,-116.5 415.5,-116.5 415.5,-138.75"/>
<text xml:space="preserve" text-anchor="middle" x="390.25" y="-125.25" font-family="Helvetica,sans-Serif" font-size="10.00">QMenu</text>
</a>
</g>
</g>
<!-- Node1&#45;&gt;Node11 -->
<g id="edge10_Node000001_Node000011" class="edge">
<title>Node1&#45;&gt;Node11</title>
<g id="a_edge10_Node000001_Node000011"><a xlink:title=" ">
<path fill="none" stroke="#63b8ff" d="M572.47,-174.3C534.99,-165.99 481.67,-153.75 426.81,-139.33"/>
<polygon fill="#63b8ff" stroke="#63b8ff" points="427.85,-135.98 417.29,-136.81 426.06,-142.75 427.85,-135.98"/>
</a>
</g>
</g>
<!-- Node12 -->
<g id="Node000012" class="node">
<title>Node12</title>
<g id="a_Node000012"><a xlink:title=" ">
<polygon fill="#e0e0e0" stroke="#999999" points="517.38,-138.75 433.12,-138.75 433.12,-116.5 517.38,-116.5 517.38,-138.75"/>
<text xml:space="preserve" text-anchor="middle" x="475.25" y="-125.25" font-family="Helvetica,sans-Serif" font-size="10.00">QMutexLocker</text>
</a>
</g>
</g>
<!-- Node1&#45;&gt;Node12 -->
<g id="edge11_Node000001_Node000012" class="edge">
<title>Node1&#45;&gt;Node12</title>
<g id="a_edge11_Node000001_Node000012"><a xlink:title=" ">
<path fill="none" stroke="#63b8ff" d="M593.79,-174.29C571.05,-165.53 538.5,-152.99 513.26,-143.27"/>
<polygon fill="#63b8ff" stroke="#63b8ff" points="514.59,-140.03 504,-139.7 512.07,-146.56 514.59,-140.03"/>
</a>
</g>
</g>
<!-- Node13 -->
<g id="Node000013" class="node">
<title>Node13</title>
<g id="a_Node000013"><a xlink:title=" ">
<polygon fill="#e0e0e0" stroke="#999999" points="616.88,-138.75 535.62,-138.75 535.62,-116.5 616.88,-116.5 616.88,-138.75"/>
<text xml:space="preserve" text-anchor="middle" x="576.25" y="-125.25" font-family="Helvetica,sans-Serif" font-size="10.00">QPlainTextEdit</text>
</a>
</g>
</g>
<!-- Node1&#45;&gt;Node13 -->
<g id="edge12_Node000001_Node000013" class="edge">
<title>Node1&#45;&gt;Node13</title>
<g id="a_edge12_Node000001_Node000013"><a xlink:title=" ">
<path fill="none" stroke="#63b8ff" d="M612.79,-174.29C606.88,-166.91 598.82,-156.84 591.77,-148.03"/>
<polygon fill="#63b8ff" stroke="#63b8ff" points="594.6,-145.96 585.62,-140.34 589.14,-150.33 594.6,-145.96"/>
</a>
</g>
</g>
<!-- Node14 -->
<g id="Node000014" class="node">
<title>Node14</title>
<g id="a_Node000014"><a xlink:title=" ">
<polygon fill="#e0e0e0" stroke="#999999" points="699.25,-138.75 635.25,-138.75 635.25,-116.5 699.25,-116.5 699.25,-138.75"/>
<text xml:space="preserve" text-anchor="middle" x="667.25" y="-125.25" font-family="Helvetica,sans-Serif" font-size="10.00">QScrollBar</text>
</a>
</g>
</g>
<!-- Node1&#45;&gt;Node14 -->
<g id="edge13_Node000001_Node000014" class="edge">
<title>Node1&#45;&gt;Node14</title>
<g id="a_edge13_Node000001_Node000014"><a xlink:title=" ">
<path fill="none" stroke="#63b8ff" d="M629.9,-174.29C635.94,-166.91 644.18,-156.84 651.38,-148.03"/>
<polygon fill="#63b8ff" stroke="#63b8ff" points="654.06,-150.29 657.68,-140.33 648.64,-145.85 654.06,-150.29"/>
</a>
</g>
</g>
<!-- Node15 -->
<g id="Node000015" class="node">
<title>Node15</title>
<g id="a_Node000015"><a xlink:title=" ">
<polygon fill="#e0e0e0" stroke="#999999" points="789.38,-138.75 717.12,-138.75 717.12,-116.5 789.38,-116.5 789.38,-138.75"/>
<text xml:space="preserve" text-anchor="middle" x="753.25" y="-125.25" font-family="Helvetica,sans-Serif" font-size="10.00">QTabWidget</text>
</a>
</g>
</g>
<!-- Node1&#45;&gt;Node15 -->
<g id="edge14_Node000001_Node000015" class="edge">
<title>Node1&#45;&gt;Node15</title>
<g id="a_edge14_Node000001_Node000015"><a xlink:title=" ">
<path fill="none" stroke="#63b8ff" d="M646.08,-174.29C666.36,-165.65 695.28,-153.33 717.96,-143.66"/>
<polygon fill="#63b8ff" stroke="#63b8ff" points="719.31,-146.89 727.14,-139.75 716.57,-140.45 719.31,-146.89"/>
</a>
</g>
</g>
<!-- Node16 -->
<g id="Node000016" class="node">
<title>Node16</title>
<g id="a_Node000016"><a xlink:title=" ">
<polygon fill="#e0e0e0" stroke="#999999" points="886.75,-138.75 807.75,-138.75 807.75,-116.5 886.75,-116.5 886.75,-138.75"/>
<text xml:space="preserve" text-anchor="middle" x="847.25" y="-125.25" font-family="Helvetica,sans-Serif" font-size="10.00">QVBoxLayout</text>
</a>
</g>
</g>
<!-- Node1&#45;&gt;Node16 -->
<g id="edge15_Node000001_Node000016" class="edge">
<title>Node1&#45;&gt;Node16</title>
<g id="a_edge15_Node000001_Node000016"><a xlink:title=" ">
<path fill="none" stroke="#63b8ff" d="M663.76,-174.29C701.43,-164.92 756.5,-151.21 796.48,-141.26"/>
<polygon fill="#63b8ff" stroke="#63b8ff" points="797.26,-144.68 806.11,-138.86 795.56,-137.88 797.26,-144.68"/>
</a>
</g>
</g>
<!-- Node17 -->
<g id="Node000017" class="node">
<title>Node17</title>
<g id="a_Node000017"><a xlink:title=" ">
<polygon fill="#e0e0e0" stroke="#999999" points="965.75,-138.75 904.75,-138.75 904.75,-116.5 965.75,-116.5 965.75,-138.75"/>
<text xml:space="preserve" text-anchor="middle" x="935.25" y="-125.25" font-family="Helvetica,sans-Serif" font-size="10.00">algorithm</text>
</a>
</g>
</g>
<!-- Node1&#45;&gt;Node17 -->
<g id="edge16_Node000001_Node000017" class="edge">
<title>Node1&#45;&gt;Node17</title>
<g id="a_edge16_Node000001_Node000017"><a xlink:title=" ">
<path fill="none" stroke="#63b8ff" d="M676.04,-177.13C729.34,-169.28 812.82,-156.12 893.77,-139.15"/>
<polygon fill="#63b8ff" stroke="#63b8ff" points="894.12,-142.65 903.17,-137.15 892.66,-135.8 894.12,-142.65"/>
</a>
</g>
</g>
<!-- Node3 -->
<g id="Node000003" class="node">
<title>Node3</title>
<g id="a_Node000003"><a xlink:href="LogEntry_8h_source.html" target="_top" xlink:title=" ">
<polygon fill="white" stroke="#666666" points="166.38,-80.5 76.12,-80.5 76.12,-58.25 166.38,-58.25 166.38,-80.5"/>
<text xml:space="preserve" text-anchor="middle" x="121.25" y="-67" font-family="Helvetica,sans-Serif" font-size="10.00">core/LogEntry.h</text>
</a>
</g>
</g>
<!-- Node2&#45;&gt;Node3 -->
<g id="edge2_Node000002_Node000003" class="edge">
<title>Node2&#45;&gt;Node3</title>
<g id="a_edge2_Node000002_Node000003"><a xlink:title=" ">
<path fill="none" stroke="#63b8ff" d="M273.08,-116.04C243.04,-107.01 199.63,-93.95 166.92,-84.11"/>
<polygon fill="#63b8ff" stroke="#63b8ff" points="168.3,-80.87 157.71,-81.34 166.28,-87.58 168.3,-80.87"/>
</a>
</g>
</g>
<!-- Node7 -->
<g id="Node000007" class="node">
<title>Node7</title>
<g id="a_Node000007"><a xlink:title=" ">
<polygon fill="#e0e0e0" stroke="#999999" points="264.12,-80.5 184.38,-80.5 184.38,-58.25 264.12,-58.25 264.12,-80.5"/>
<text xml:space="preserve" text-anchor="middle" x="224.25" y="-67" font-family="Helvetica,sans-Serif" font-size="10.00">QDockWidget</text>
</a>
</g>
</g>
<!-- Node2&#45;&gt;Node7 -->
<g id="edge6_Node000002_Node000007" class="edge">
<title>Node2&#45;&gt;Node7</title>
<g id="a_edge6_Node000002_Node000007"><a xlink:title=" ">
<path fill="none" stroke="#63b8ff" d="M292.45,-116.04C280.37,-107.95 263.46,-96.63 249.51,-87.29"/>
<polygon fill="#63b8ff" stroke="#63b8ff" points="251.49,-84.41 241.24,-81.75 247.6,-90.22 251.49,-84.41"/>
</a>
</g>
</g>
<!-- Node8 -->
<g id="Node000008" class="node">
<title>Node8</title>
<g id="a_Node000008"><a xlink:title=" ">
<polygon fill="#e0e0e0" stroke="#999999" points="334.62,-80.5 281.88,-80.5 281.88,-58.25 334.62,-58.25 334.62,-80.5"/>
<text xml:space="preserve" text-anchor="middle" x="308.25" y="-67" font-family="Helvetica,sans-Serif" font-size="10.00">QMutex</text>
</a>
</g>
</g>
<!-- Node2&#45;&gt;Node8 -->
<g id="edge7_Node000002_Node000008" class="edge">
<title>Node2&#45;&gt;Node8</title>
<g id="a_edge7_Node000002_Node000008"><a xlink:title=" ">
<path fill="none" stroke="#63b8ff" d="M308.25,-116.04C308.25,-109.37 308.25,-100.49 308.25,-92.34"/>
<polygon fill="#63b8ff" stroke="#63b8ff" points="311.75,-92.42 308.25,-82.42 304.75,-92.42 311.75,-92.42"/>
</a>
</g>
</g>
<!-- Node9 -->
<g id="Node000009" class="node">
<title>Node9</title>
<g id="a_Node000009"><a xlink:title=" ">
<polygon fill="#e0e0e0" stroke="#999999" points="403.5,-80.5 353,-80.5 353,-58.25 403.5,-58.25 403.5,-80.5"/>
<text xml:space="preserve" text-anchor="middle" x="378.25" y="-67" font-family="Helvetica,sans-Serif" font-size="10.00">QTimer</text>
</a>
</g>
</g>
<!-- Node2&#45;&gt;Node9 -->
<g id="edge8_Node000002_Node000009" class="edge">
<title>Node2&#45;&gt;Node9</title>
<g id="a_edge8_Node000002_Node000009"><a xlink:title=" ">
<path fill="none" stroke="#63b8ff" d="M321.42,-116.04C331.19,-108.19 344.76,-97.29 356.18,-88.11"/>
<polygon fill="#63b8ff" stroke="#63b8ff" points="358.36,-90.85 363.96,-81.86 353.98,-85.39 358.36,-90.85"/>
</a>
</g>
</g>
<!-- Node10 -->
<g id="Node000010" class="node">
<title>Node10</title>
<g id="a_Node000010"><a xlink:title=" ">
<polygon fill="#e0e0e0" stroke="#999999" points="475.38,-80.5 421.12,-80.5 421.12,-58.25 475.38,-58.25 475.38,-80.5"/>
<text xml:space="preserve" text-anchor="middle" x="448.25" y="-67" font-family="Helvetica,sans-Serif" font-size="10.00">QVector</text>
</a>
</g>
</g>
<!-- Node2&#45;&gt;Node10 -->
<g id="edge9_Node000002_Node000010" class="edge">
<title>Node2&#45;&gt;Node10</title>
<g id="a_edge9_Node000002_Node000010"><a xlink:title=" ">
<path fill="none" stroke="#63b8ff" d="M334.58,-116.04C356.29,-107.32 387.32,-94.86 411.48,-85.15"/>
<polygon fill="#63b8ff" stroke="#63b8ff" points="412.66,-88.45 420.63,-81.47 410.05,-81.95 412.66,-88.45"/>
</a>
</g>
</g>
<!-- Node4 -->
<g id="Node000004" class="node">
<title>Node4</title>
<g id="a_Node000004"><a xlink:title=" ">
<polygon fill="#e0e0e0" stroke="#999999" points="68.5,-22.25 0,-22.25 0,0 68.5,0 68.5,-22.25"/>
<text xml:space="preserve" text-anchor="middle" x="34.25" y="-8.75" font-family="Helvetica,sans-Serif" font-size="10.00">QDateTime</text>
</a>
</g>
</g>
<!-- Node3&#45;&gt;Node4 -->
<g id="edge3_Node000003_Node000004" class="edge">
<title>Node3&#45;&gt;Node4</title>
<g id="a_edge3_Node000003_Node000004"><a xlink:title=" ">
<path fill="none" stroke="#63b8ff" d="M104.89,-57.79C92.25,-49.62 74.52,-38.16 59.99,-28.77"/>
<polygon fill="#63b8ff" stroke="#63b8ff" points="62.11,-25.97 51.81,-23.48 58.31,-31.85 62.11,-25.97"/>
</a>
</g>
</g>
<!-- Node5 -->
<g id="Node000005" class="node">
<title>Node5</title>
<g id="a_Node000005"><a xlink:title=" ">
<polygon fill="#e0e0e0" stroke="#999999" points="156.25,-22.25 86.25,-22.25 86.25,0 156.25,0 156.25,-22.25"/>
<text xml:space="preserve" text-anchor="middle" x="121.25" y="-8.75" font-family="Helvetica,sans-Serif" font-size="10.00">QMetaType</text>
</a>
</g>
</g>
<!-- Node3&#45;&gt;Node5 -->
<g id="edge4_Node000003_Node000005" class="edge">
<title>Node3&#45;&gt;Node5</title>
<g id="a_edge4_Node000003_Node000005"><a xlink:title=" ">
<path fill="none" stroke="#63b8ff" d="M121.25,-57.79C121.25,-51.12 121.25,-42.24 121.25,-34.09"/>
<polygon fill="#63b8ff" stroke="#63b8ff" points="124.75,-34.17 121.25,-24.17 117.75,-34.17 124.75,-34.17"/>
</a>
</g>
</g>
<!-- Node6 -->
<g id="Node000006" class="node">
<title>Node6</title>
<g id="a_Node000006"><a xlink:title=" ">
<polygon fill="#e0e0e0" stroke="#999999" points="225.88,-22.25 174.62,-22.25 174.62,0 225.88,0 225.88,-22.25"/>
<text xml:space="preserve" text-anchor="middle" x="200.25" y="-8.75" font-family="Helvetica,sans-Serif" font-size="10.00">QString</text>
</a>
</g>
</g>
<!-- Node3&#45;&gt;Node6 -->
<g id="edge5_Node000003_Node000006" class="edge">
<title>Node3&#45;&gt;Node6</title>
<g id="a_edge5_Node000003_Node000006"><a xlink:title=" ">
<path fill="none" stroke="#63b8ff" d="M136.11,-57.79C147.36,-49.78 163.06,-38.6 176.11,-29.31"/>
<polygon fill="#63b8ff" stroke="#63b8ff" points="178.11,-32.19 184.22,-23.54 174.05,-26.48 178.11,-32.19"/>
</a>
</g>
</g>
</g>
</svg>
