<?xml version="1.0" encoding="UTF-8" standalone="no"?>
<!DOCTYPE svg PUBLIC "-//W3C//DTD SVG 1.1//EN"
 "http://www.w3.org/Graphics/SVG/1.1/DTD/svg11.dtd">
<!-- Generated by graphviz version 14.1.2 (20260124.0452)
 -->
<!-- Title: app/include/ui/NodeDetailsDialog.h Pages: 1 -->
<svg width="308pt" height="103pt"
 viewBox="0.00 0.00 308.00 103.00" xmlns="http://www.w3.org/2000/svg" xmlns:xlink="http://www.w3.org/1999/xlink">
<g id="graph0" class="graph" transform="scale(1 1) rotate(0) translate(4 98.75)">
<title>app/include/ui/NodeDetailsDialog.h</title>
<!-- Node1 -->
<g id="Node000001" class="node">
<title>Node1</title>
<g id="a_Node000001"><a xlink:title="Non&#45;modal dialog displaying AST node properties in a tree view.">
<polygon fill="#999999" stroke="#666666" points="214.25,-94.75 71.5,-94.75 71.5,-58.25 214.25,-58.25 214.25,-94.75"/>
<text xml:space="preserve" text-anchor="start" x="79.5" y="-81.25" font-family="Helvetica,sans-Serif" font-size="10.00">app/include/ui/NodeDetails</text>
<text xml:space="preserve" text-anchor="middle" x="142.88" y="-67" font-family="Helvetica,sans-Serif" font-size="10.00">Dialog.h</text>
</a>
</g>
</g>
<!-- Node2 -->
<g id="Node000002" class="node">
<title>Node2</title>
<g id="a_Node000002"><a xlink:href="MainWindow_8cpp_source.html" target="_top" xlink:title=" ">
<polygon fill="white" stroke="#666666" points="127.75,-22.25 0,-22.25 0,0 127.75,0 127.75,-22.25"/>
<text xml:space="preserve" text-anchor="middle" x="63.88" y="-8.75" font-family="Helvetica,sans-Serif" font-size="10.00">app/ui/MainWindow.cpp</text>
</a>
</g>
</g>
<!-- Node1&#45;&gt;Node2 -->
<g id="edge1_Node000001_Node000002" class="edge">
<title>Node1&#45;&gt;Node2</title>
<g id="a_edge1_Node000001_Node000002"><a xlink:title=" ">
<path fill="none" stroke="#63b8ff" d="M111.92,-50.67C99.83,-40.97 86.62,-30.37 77.11,-22.74"/>
<polygon fill="#63b8ff" stroke="#63b8ff" points="109.7,-53.37 119.69,-56.9 114.08,-47.91 109.7,-53.37"/>
</a>
</g>
</g>
<!-- Node3 -->
<g id="Node000003" class="node">
<title>Node3</title>
<g id="a_Node000003"><a xlink:href="NodeDetailsDialog_8cpp.html" target="_top" xlink:title="Implementation of the Node Details dialog.">
<polygon fill="white" stroke="#666666" points="300.25,-22.25 145.5,-22.25 145.5,0 300.25,0 300.25,-22.25"/>
<text xml:space="preserve" text-anchor="middle" x="222.88" y="-8.75" font-family="Helvetica,sans-Serif" font-size="10.00">app/ui/NodeDetailsDialog.cpp</text>
</a>
</g>
</g>
<!-- Node1&#45;&gt;Node3 -->
<g id="edge2_Node000001_Node000003" class="edge">
<title>Node1&#45;&gt;Node3</title>
<g id="a_edge2_Node000001_Node000003"><a xlink:title=" ">
<path fill="none" stroke="#63b8ff" d="M173.86,-50.95C186.2,-41.18 199.75,-30.44 209.47,-22.74"/>
<polygon fill="#63b8ff" stroke="#63b8ff" points="172.01,-47.95 166.35,-56.91 176.36,-53.44 172.01,-47.95"/>
</a>
</g>
</g>
</g>
</svg>
