<?xml version="1.0" encoding="UTF-8" standalone="no"?>
<!DOCTYPE svg PUBLIC "-//W3C//DTD SVG 1.1//EN"
 "http://www.w3.org/Graphics/SVG/1.1/DTD/svg11.dtd">
<!-- Generated by graphviz version 14.1.2 (20260124.0452)
 -->
<!-- Title: app/include/ui/SourceCodeView.h Pages: 1 -->
<svg width="894pt" height="219pt"
 viewBox="0.00 0.00 894.00 219.00" xmlns="http://www.w3.org/2000/svg" xmlns:xlink="http://www.w3.org/1999/xlink">
<g id="graph0" class="graph" transform="scale(1 1) rotate(0) translate(4 215.25)">
<title>app/include/ui/SourceCodeView.h</title>
<!-- Node1 -->
<g id="Node000001" class="node">
<title>Node1</title>
<g id="a_Node000001"><a xlink:title="Source code display widget with line numbers.">
<polygon fill="#999999" stroke="#666666" points="571.88,-211.25 430.62,-211.25 430.62,-174.75 571.88,-174.75 571.88,-211.25"/>
<text xml:space="preserve" text-anchor="start" x="438.62" y="-197.75" font-family="Helvetica,sans-Serif" font-size="10.00">app/include/ui/SourceCode</text>
<text xml:space="preserve" text-anchor="middle" x="501.25" y="-183.5" font-family="Helvetica,sans-Serif" font-size="10.00">View.h</text>
</a>
</g>
</g>
<!-- Node2 -->
<g id="Node000002" class="node">
<title>Node2</title>
<g id="a_Node000002"><a xlink:href="FileManager_8h.html" target="_top" xlink:title="Centralized file registry with path&#45;to&#45;FileID mapping.">
<polygon fill="white" stroke="#666666" points="286.62,-80.5 161.88,-80.5 161.88,-58.25 286.62,-58.25 286.62,-80.5"/>
<text xml:space="preserve" text-anchor="middle" x="224.25" y="-67" font-family="Helvetica,sans-Serif" font-size="10.00">common/FileManager.h</text>
</a>
</g>
</g>
<!-- Node1&#45;&gt;Node2 -->
<g id="edge1_Node000001_Node000002" class="edge">
<title>Node1&#45;&gt;Node2</title>
<g id="a_edge1_Node000001_Node000002"><a xlink:title=" ">
<path fill="none" stroke="#63b8ff" d="M430.34,-189.67C350.52,-185.38 228.17,-173.21 199.25,-138.75 187.39,-124.61 197.19,-104.36 207.8,-89.56"/>
<polygon fill="#63b8ff" stroke="#63b8ff" points="210.36,-91.98 213.74,-81.94 204.83,-87.68 210.36,-91.98"/>
</a>
</g>
</g>
<!-- Node10 -->
<g id="Node000010" class="node">
<title>Node10</title>
<g id="a_Node000010"><a xlink:href="SourceLocation_8h.html" target="_top" xlink:title="Source code location representation.">
<polygon fill="white" stroke="#666666" points="328,-138.75 208.5,-138.75 208.5,-116.5 328,-116.5 328,-138.75"/>
<text xml:space="preserve" text-anchor="middle" x="268.25" y="-125.25" font-family="Helvetica,sans-Serif" font-size="10.00">core/SourceLocation.h</text>
</a>
</g>
</g>
<!-- Node1&#45;&gt;Node10 -->
<g id="edge9_Node000001_Node000010" class="edge">
<title>Node1&#45;&gt;Node10</title>
<g id="a_edge9_Node000001_Node000010"><a xlink:title=" ">
<path fill="none" stroke="#63b8ff" d="M436.04,-174.26C398.62,-164.09 352.39,-151.51 317.93,-142.14"/>
<polygon fill="#63b8ff" stroke="#63b8ff" points="319.21,-138.86 308.65,-139.61 317.38,-145.61 319.21,-138.86"/>
</a>
</g>
</g>
<!-- Node11 -->
<g id="Node000011" class="node">
<title>Node11</title>
<g id="a_Node000011"><a xlink:title=" ">
<polygon fill="#e0e0e0" stroke="#999999" points="426.88,-138.75 345.62,-138.75 345.62,-116.5 426.88,-116.5 426.88,-138.75"/>
<text xml:space="preserve" text-anchor="middle" x="386.25" y="-125.25" font-family="Helvetica,sans-Serif" font-size="10.00">QPlainTextEdit</text>
</a>
</g>
</g>
<!-- Node1&#45;&gt;Node11 -->
<g id="edge11_Node000001_Node000011" class="edge">
<title>Node1&#45;&gt;Node11</title>
<g id="a_edge11_Node000001_Node000011"><a xlink:title=" ">
<path fill="none" stroke="#63b8ff" d="M469.22,-174.35C452.26,-165 431.61,-153.62 415.15,-144.55"/>
<polygon fill="#63b8ff" stroke="#63b8ff" points="417.29,-141.74 406.84,-139.97 413.91,-147.87 417.29,-141.74"/>
</a>
</g>
</g>
<!-- Node12 -->
<g id="Node000012" class="node">
<title>Node12</title>
<g id="a_Node000012"><a xlink:title=" ">
<polygon fill="#e0e0e0" stroke="#999999" points="492,-138.75 444.5,-138.75 444.5,-116.5 492,-116.5 492,-138.75"/>
<text xml:space="preserve" text-anchor="middle" x="468.25" y="-125.25" font-family="Helvetica,sans-Serif" font-size="10.00">QPoint</text>
</a>
</g>
</g>
<!-- Node1&#45;&gt;Node12 -->
<g id="edge12_Node000001_Node000012" class="edge">
<title>Node1&#45;&gt;Node12</title>
<g id="a_edge12_Node000001_Node000012"><a xlink:title=" ">
<path fill="none" stroke="#63b8ff" d="M492.06,-174.35C488.02,-166.59 483.25,-157.43 479.04,-149.35"/>
<polygon fill="#63b8ff" stroke="#63b8ff" points="482.2,-147.84 474.48,-140.59 475.99,-151.07 482.2,-147.84"/>
</a>
</g>
</g>
<!-- Node13 -->
<g id="Node000013" class="node">
<title>Node13</title>
<g id="a_Node000013"><a xlink:title=" ">
<polygon fill="#e0e0e0" stroke="#999999" points="560.88,-138.75 509.62,-138.75 509.62,-116.5 560.88,-116.5 560.88,-138.75"/>
<text xml:space="preserve" text-anchor="middle" x="535.25" y="-125.25" font-family="Helvetica,sans-Serif" font-size="10.00">QString</text>
</a>
</g>
</g>
<!-- Node1&#45;&gt;Node13 -->
<g id="edge13_Node000001_Node000013" class="edge">
<title>Node1&#45;&gt;Node13</title>
<g id="a_edge13_Node000001_Node000013"><a xlink:title=" ">
<path fill="none" stroke="#63b8ff" d="M510.72,-174.35C514.88,-166.59 519.8,-157.43 524.13,-149.35"/>
<polygon fill="#63b8ff" stroke="#63b8ff" points="527.19,-151.04 528.84,-140.58 521.03,-147.73 527.19,-151.04"/>
</a>
</g>
</g>
<!-- Node14 -->
<g id="Node000014" class="node">
<title>Node14</title>
<g id="a_Node000014"><a xlink:title=" ">
<polygon fill="#e0e0e0" stroke="#999999" points="685.62,-138.75 578.88,-138.75 578.88,-116.5 685.62,-116.5 685.62,-138.75"/>
<text xml:space="preserve" text-anchor="middle" x="632.25" y="-125.25" font-family="Helvetica,sans-Serif" font-size="10.00">QSyntaxHighlighter</text>
</a>
</g>
</g>
<!-- Node1&#45;&gt;Node14 -->
<g id="edge14_Node000001_Node000014" class="edge">
<title>Node1&#45;&gt;Node14</title>
<g id="a_edge14_Node000001_Node000014"><a xlink:title=" ">
<path fill="none" stroke="#63b8ff" d="M537.74,-174.35C557.32,-164.87 581.24,-153.3 600.12,-144.17"/>
<polygon fill="#63b8ff" stroke="#63b8ff" points="601.46,-147.41 608.94,-139.9 598.41,-141.11 601.46,-147.41"/>
</a>
</g>
</g>
<!-- Node15 -->
<g id="Node000015" class="node">
<title>Node15</title>
<g id="a_Node000015"><a xlink:title=" ">
<polygon fill="#e0e0e0" stroke="#999999" points="777.12,-138.75 703.38,-138.75 703.38,-116.5 777.12,-116.5 777.12,-138.75"/>
<text xml:space="preserve" text-anchor="middle" x="740.25" y="-125.25" font-family="Helvetica,sans-Serif" font-size="10.00">QTextCursor</text>
</a>
</g>
</g>
<!-- Node1&#45;&gt;Node15 -->
<g id="edge15_Node000001_Node000015" class="edge">
<title>Node1&#45;&gt;Node15</title>
<g id="a_edge15_Node000001_Node000015"><a xlink:title=" ">
<path fill="none" stroke="#63b8ff" d="M568.14,-174.26C607.52,-163.82 656.42,-150.85 692.02,-141.41"/>
<polygon fill="#63b8ff" stroke="#63b8ff" points="692.85,-144.82 701.62,-138.87 691.05,-138.05 692.85,-144.82"/>
</a>
</g>
</g>
<!-- Node16 -->
<g id="Node000016" class="node">
<title>Node16</title>
<g id="a_Node000016"><a xlink:title=" ">
<polygon fill="#e0e0e0" stroke="#999999" points="885.75,-138.75 794.75,-138.75 794.75,-116.5 885.75,-116.5 885.75,-138.75"/>
<text xml:space="preserve" text-anchor="middle" x="840.25" y="-125.25" font-family="Helvetica,sans-Serif" font-size="10.00">QTextDocument</text>
</a>
</g>
</g>
<!-- Node1&#45;&gt;Node16 -->
<g id="edge16_Node000001_Node000016" class="edge">
<title>Node1&#45;&gt;Node16</title>
<g id="a_edge16_Node000001_Node000016"><a xlink:title=" ">
<path fill="none" stroke="#63b8ff" d="M572.11,-178.77C627.19,-168.49 705.82,-153.8 783.36,-139.29"/>
<polygon fill="#63b8ff" stroke="#63b8ff" points="783.62,-142.8 792.81,-137.52 782.33,-135.92 783.62,-142.8"/>
</a>
</g>
</g>
<!-- Node3 -->
<g id="Node000003" class="node">
<title>Node3</title>
<g id="a_Node000003"><a xlink:title=" ">
<polygon fill="#e0e0e0" stroke="#999999" points="50.5,-22.25 0,-22.25 0,0 50.5,0 50.5,-22.25"/>
<text xml:space="preserve" text-anchor="middle" x="25.25" y="-8.75" font-family="Helvetica,sans-Serif" font-size="10.00">cstddef</text>
</a>
</g>
</g>
<!-- Node2&#45;&gt;Node3 -->
<g id="edge2_Node000002_Node000003" class="edge">
<title>Node2&#45;&gt;Node3</title>
<g id="a_edge2_Node000002_Node000003"><a xlink:title=" ">
<path fill="none" stroke="#63b8ff" d="M185.86,-57.84C154.74,-49.26 109.47,-36.67 61.73,-22.94"/>
<polygon fill="#63b8ff" stroke="#63b8ff" points="62.89,-19.63 52.31,-20.22 60.95,-26.35 62.89,-19.63"/>
</a>
</g>
</g>
<!-- Node4 -->
<g id="Node000004" class="node">
<title>Node4</title>
<g id="a_Node000004"><a xlink:title=" ">
<polygon fill="#e0e0e0" stroke="#999999" points="113.88,-22.25 68.62,-22.25 68.62,0 113.88,0 113.88,-22.25"/>
<text xml:space="preserve" text-anchor="middle" x="91.25" y="-8.75" font-family="Helvetica,sans-Serif" font-size="10.00">mutex</text>
</a>
</g>
</g>
<!-- Node2&#45;&gt;Node4 -->
<g id="edge3_Node000002_Node000004" class="edge">
<title>Node2&#45;&gt;Node4</title>
<g id="a_edge3_Node000002_Node000004"><a xlink:title=" ">
<path fill="none" stroke="#63b8ff" d="M199.23,-57.79C178.19,-48.89 147.91,-36.09 124.77,-26.3"/>
<polygon fill="#63b8ff" stroke="#63b8ff" points="126.34,-23.17 115.77,-22.49 123.61,-29.61 126.34,-23.17"/>
</a>
</g>
</g>
<!-- Node5 -->
<g id="Node000005" class="node">
<title>Node5</title>
<g id="a_Node000005"><a xlink:title=" ">
<polygon fill="#e0e0e0" stroke="#999999" points="185,-22.25 131.5,-22.25 131.5,0 185,0 185,-22.25"/>
<text xml:space="preserve" text-anchor="middle" x="158.25" y="-8.75" font-family="Helvetica,sans-Serif" font-size="10.00">optional</text>
</a>
</g>
</g>
<!-- Node2&#45;&gt;Node5 -->
<g id="edge4_Node000002_Node000005" class="edge">
<title>Node2&#45;&gt;Node5</title>
<g id="a_edge4_Node000002_Node000005"><a xlink:title=" ">
<path fill="none" stroke="#63b8ff" d="M211.84,-57.79C202.62,-49.94 189.83,-39.04 179.06,-29.86"/>
<polygon fill="#63b8ff" stroke="#63b8ff" points="181.64,-27.46 171.76,-23.64 177.1,-32.79 181.64,-27.46"/>
</a>
</g>
</g>
<!-- Node6 -->
<g id="Node000006" class="node">
<title>Node6</title>
<g id="a_Node000006"><a xlink:title=" ">
<polygon fill="#e0e0e0" stroke="#999999" points="245.75,-22.25 202.75,-22.25 202.75,0 245.75,0 245.75,-22.25"/>
<text xml:space="preserve" text-anchor="middle" x="224.25" y="-8.75" font-family="Helvetica,sans-Serif" font-size="10.00">string</text>
</a>
</g>
</g>
<!-- Node2&#45;&gt;Node6 -->
<g id="edge5_Node000002_Node000006" class="edge">
<title>Node2&#45;&gt;Node6</title>
<g id="a_edge5_Node000002_Node000006"><a xlink:title=" ">
<path fill="none" stroke="#63b8ff" d="M224.25,-57.79C224.25,-51.12 224.25,-42.24 224.25,-34.09"/>
<polygon fill="#63b8ff" stroke="#63b8ff" points="227.75,-34.17 224.25,-24.17 220.75,-34.17 227.75,-34.17"/>
</a>
</g>
</g>
<!-- Node7 -->
<g id="Node000007" class="node">
<title>Node7</title>
<g id="a_Node000007"><a xlink:title=" ">
<polygon fill="#e0e0e0" stroke="#999999" points="331.12,-22.25 263.38,-22.25 263.38,0 331.12,0 331.12,-22.25"/>
<text xml:space="preserve" text-anchor="middle" x="297.25" y="-8.75" font-family="Helvetica,sans-Serif" font-size="10.00">string_view</text>
</a>
</g>
</g>
<!-- Node2&#45;&gt;Node7 -->
<g id="edge6_Node000002_Node000007" class="edge">
<title>Node2&#45;&gt;Node7</title>
<g id="a_edge6_Node000002_Node000007"><a xlink:title=" ">
<path fill="none" stroke="#63b8ff" d="M237.98,-57.79C248.28,-49.86 262.6,-38.82 274.59,-29.59"/>
<polygon fill="#63b8ff" stroke="#63b8ff" points="276.6,-32.46 282.38,-23.58 272.32,-26.91 276.6,-32.46"/>
</a>
</g>
</g>
<!-- Node8 -->
<g id="Node000008" class="node">
<title>Node8</title>
<g id="a_Node000008"><a xlink:title=" ">
<polygon fill="#e0e0e0" stroke="#999999" points="439.38,-22.25 349.12,-22.25 349.12,0 439.38,0 439.38,-22.25"/>
<text xml:space="preserve" text-anchor="middle" x="394.25" y="-8.75" font-family="Helvetica,sans-Serif" font-size="10.00">unordered_map</text>
</a>
</g>
</g>
<!-- Node2&#45;&gt;Node8 -->
<g id="edge7_Node000002_Node000008" class="edge">
<title>Node2&#45;&gt;Node8</title>
<g id="a_edge7_Node000002_Node000008"><a xlink:title=" ">
<path fill="none" stroke="#63b8ff" d="M256.23,-57.79C283.18,-48.88 321.97,-36.04 351.57,-26.25"/>
<polygon fill="#63b8ff" stroke="#63b8ff" points="352.59,-29.6 360.98,-23.13 350.39,-22.95 352.59,-29.6"/>
</a>
</g>
</g>
<!-- Node9 -->
<g id="Node000009" class="node">
<title>Node9</title>
<g id="a_Node000009"><a xlink:title=" ">
<polygon fill="#e0e0e0" stroke="#999999" points="503.25,-22.25 457.25,-22.25 457.25,0 503.25,0 503.25,-22.25"/>
<text xml:space="preserve" text-anchor="middle" x="480.25" y="-8.75" font-family="Helvetica,sans-Serif" font-size="10.00">vector</text>
</a>
</g>
</g>
<!-- Node2&#45;&gt;Node9 -->
<g id="edge8_Node000002_Node000009" class="edge">
<title>Node2&#45;&gt;Node9</title>
<g id="a_edge8_Node000002_Node000009"><a xlink:title=" ">
<path fill="none" stroke="#63b8ff" d="M284.06,-57.8C326.84,-49.84 385.95,-38.04 446.08,-22.63"/>
<polygon fill="#63b8ff" stroke="#63b8ff" points="446.65,-26.1 455.45,-20.2 444.89,-19.32 446.65,-26.1"/>
</a>
</g>
</g>
<!-- Node10&#45;&gt;Node2 -->
<g id="edge10_Node000010_Node000002" class="edge">
<title>Node10&#45;&gt;Node2</title>
<g id="a_edge10_Node000010_Node000002"><a xlink:title=" ">
<path fill="none" stroke="#63b8ff" d="M259.97,-116.04C254.2,-108.66 246.32,-98.59 239.43,-89.78"/>
<polygon fill="#63b8ff" stroke="#63b8ff" points="242.34,-87.82 233.42,-82.1 236.83,-92.13 242.34,-87.82"/>
</a>
</g>
</g>
</g>
</svg>
